<svg width="20" height="20" viewBox="0 0 20 20" fill="none" xmlns="http://www.w3.org/2000/svg">
<mask id="mask0_3235_260" style="mask-type:luminance" maskUnits="userSpaceOnUse" x="2" y="1" width="16" height="17">
<path d="M18 1.95917H2V17.6326H18V1.95917Z" fill="white"/>
</mask>
<g mask="url(#mask0_3235_260)">
<path d="M8.76563 13.2873C6.70312 13.0373 5.24999 11.5529 5.24999 9.63104C5.24999 8.8498 5.53125 8.00604 6 7.44354C5.79688 6.92792 5.82813 5.83417 6.0625 5.38104C6.68749 5.30292 7.53125 5.63104 8.03125 6.08416C8.625 5.89667 9.24999 5.80292 10.0156 5.80292C10.7813 5.80292 11.4063 5.89667 11.9688 6.06854C12.4531 5.63104 13.3125 5.30292 13.9375 5.38104C14.1562 5.80292 14.1875 6.89667 13.9844 7.42792C14.4844 8.02167 14.75 8.81855 14.75 9.63104C14.75 11.5529 13.2969 13.006 11.2031 13.2717C11.7344 13.6154 12.0937 14.3654 12.0937 15.2248V16.8498C12.0937 17.3185 12.4844 17.5842 12.9531 17.3967C15.7813 16.3185 18 13.4904 18 9.99042C18 5.56854 14.4063 1.95917 9.98438 1.95917C5.5625 1.95917 2 5.56854 2 9.99042C2 13.4592 4.20312 16.3342 7.17187 17.4123C7.59375 17.5685 8 17.2873 8 16.8654V15.6154C7.78126 15.7092 7.5 15.7717 7.24999 15.7717C6.21874 15.7717 5.60937 15.2092 5.17187 14.1623C5 13.7404 4.81251 13.4904 4.45313 13.4435C4.26563 13.4279 4.20312 13.3498 4.20312 13.256C4.20312 13.0685 4.51562 12.9279 4.82813 12.9279C5.28126 12.9279 5.67187 13.2092 6.07812 13.7873C6.39063 14.2404 6.71874 14.4435 7.10937 14.4435C7.5 14.4435 7.74999 14.3029 8.10937 13.9435C8.375 13.6779 8.57812 13.4435 8.76563 13.2873Z" fill="black"/>
</g>
</svg>
