<svg width="20" height="20" viewBox="0 0 20 20" fill="none" xmlns="http://www.w3.org/2000/svg">
<mask id="mask0_3235_260" style="mask-type:luminance" maskUnits="userSpaceOnUse" x="1" y="0" width="18" height="19">
<path d="M19 0.979584H1V18.6122H19V0.979584Z" fill="white"/>
</mask>
<g mask="url(#mask0_3235_260)">
<path d="M8.61134 13.7237C6.29101 13.4425 4.65624 11.7725 4.65624 9.61044C4.65624 8.73154 4.97266 7.78232 5.5 7.14951C5.27149 6.56943 5.30665 5.33896 5.57031 4.8292C6.27343 4.74131 7.22265 5.11044 7.78515 5.6202C8.45312 5.40927 9.15624 5.30381 10.0176 5.30381C10.8789 5.30381 11.582 5.40927 12.2148 5.60263C12.7598 5.11044 13.7266 4.74131 14.4297 4.8292C14.6758 5.30381 14.7109 6.53427 14.4824 7.13193C15.0449 7.79989 15.3437 8.69639 15.3437 9.61044C15.3437 11.7725 13.709 13.4073 11.3535 13.7062C11.9512 14.0929 12.3555 14.9366 12.3555 15.9034V17.7315C12.3555 18.2589 12.7949 18.5577 13.3223 18.3468C16.5039 17.1339 19 13.9522 19 10.0147C19 5.04013 14.957 0.979584 9.98242 0.979584C5.00781 0.979584 1 5.04013 1 10.0147C1 13.9171 3.47851 17.1515 6.81835 18.3643C7.29297 18.5401 7.75 18.2237 7.75 17.7491V16.3429C7.50391 16.4483 7.1875 16.5187 6.90624 16.5187C5.74609 16.5187 5.06054 15.8858 4.56835 14.7081C4.375 14.2335 4.16407 13.9522 3.75977 13.8995C3.54884 13.8819 3.47851 13.794 3.47851 13.6886C3.47851 13.4776 3.83008 13.3194 4.18165 13.3194C4.69141 13.3194 5.13085 13.6358 5.58789 14.2862C5.93946 14.796 6.30859 15.0245 6.74804 15.0245C7.1875 15.0245 7.46874 14.8663 7.87304 14.462C8.17188 14.1632 8.40039 13.8995 8.61134 13.7237Z" fill="black"/>
</g>
</svg>
