<svg width="20" height="20" viewBox="0 0 20 20" fill="none" xmlns="http://www.w3.org/2000/svg">
<rect x="1.75" y="1.75" width="16.5" height="16.5" rx="2.25" stroke="black" stroke-width="1.5"/>
<path d="M17.3 2H2.7C2.3 2 2 2.3 2 2.7V17.4C2 17.7 2.3 18 2.7 18H17.4C17.8 18 18.1 17.7 18.1 17.3V2.7C18 2.3 17.7 2 17.3 2ZM6.7 15.6H4.4V8H6.8V15.6H6.7ZM5.6 7C4.8 7 4.2 6.3 4.2 5.6C4.2 4.8 4.8 4.2 5.6 4.2C6.4 4.2 7 4.8 7 5.6C6.9 6.3 6.3 7 5.6 7ZM15.6 15.6H13.2V11.9C13.2 11 13.2 9.9 12 9.9C10.8 9.9 10.6 10.9 10.6 11.9V15.7H8.2V8H10.5V9C10.8 8.4 11.6 7.8 12.7 7.8C15.1 7.8 15.5 9.4 15.5 11.4V15.6H15.6Z" fill="black"/>
</svg>
