<svg width="20" height="20" viewBox="0 0 20 20" fill="none" xmlns="http://www.w3.org/2000/svg">
<g clip-path="url(#clip0_483_37)">
<path d="M16.4889 2.88889H3.51114C3.15558 2.88889 2.88892 3.15555 2.88892 3.51111V16.5778C2.88892 16.8444 3.15558 17.1111 3.51114 17.1111H16.5778C16.9334 17.1111 17.2 16.8444 17.2 16.4889V3.51111C17.1111 3.15555 16.8445 2.88889 16.4889 2.88889ZM7.06669 14.9778H5.02225V8.22222H7.15558V14.9778H7.06669ZM6.08892 7.33333C5.3778 7.33333 4.84447 6.71111 4.84447 6.08889C4.84447 5.37777 5.3778 4.84444 6.08892 4.84444C6.80003 4.84444 7.33336 5.37777 7.33336 6.08889C7.24447 6.71111 6.71114 7.33333 6.08892 7.33333ZM14.9778 14.9778H12.8445V11.6889C12.8445 10.8889 12.8445 9.91111 11.7778 9.91111C10.7111 9.91111 10.5334 10.8 10.5334 11.6889V15.0667H8.40003V8.22222H10.4445V9.11111C10.7111 8.57777 11.4222 8.04444 12.4 8.04444C14.5334 8.04444 14.8889 9.46666 14.8889 11.2444V14.9778H14.9778Z" fill="black"/>
</g>
<rect x="2.66667" y="2.66667" width="14.6667" height="14.6667" rx="2" stroke="black" stroke-width="1.33333"/>
<defs>
<clipPath id="clip0_483_37">
<rect x="2" y="2" width="16" height="16" rx="2.66667" fill="white"/>
</clipPath>
</defs>
</svg>
